<?xml version="1.0" encoding="UTF-8" standalone="no"?>
<svg
   xmlns:dc="http://purl.org/dc/elements/1.1/"
   xmlns:cc="http://creativecommons.org/ns#"
   xmlns:rdf="http://www.w3.org/1999/02/22-rdf-syntax-ns#"
   xmlns:svg="http://www.w3.org/2000/svg"
   xmlns="http://www.w3.org/2000/svg"
   xmlns:sodipodi="http://sodipodi.sourceforge.net/DTD/sodipodi-0.dtd"
   xmlns:inkscape="http://www.inkscape.org/namespaces/inkscape"
   id="be52d4a0-d7df-45d7-a4d1-9b9d295e8f0e"
   data-name="Layer 1"
   width="825.21102"
   height="661.1631"
   viewBox="0 0 825.21102 661.1631"
   version="1.1"
   sodipodi:docname="undraw_analyze_17kw.svg"
   inkscape:version="0.92.4 (unknown)">
  <metadata
     id="metadata1025">
    <rdf:RDF>
      <cc:Work
         rdf:about="">
        <dc:format>image/svg+xml</dc:format>
        <dc:type
           rdf:resource="http://purl.org/dc/dcmitype/StillImage" />
      </cc:Work>
    </rdf:RDF>
  </metadata>
  <defs
     id="defs1023" />
  <sodipodi:namedview
     pagecolor="#ffffff"
     bordercolor="#666666"
     borderopacity="1"
     objecttolerance="10"
     gridtolerance="10"
     guidetolerance="10"
     inkscape:pageopacity="0"
     inkscape:pageshadow="2"
     inkscape:window-width="956"
     inkscape:window-height="1047"
     id="namedview1021"
     showgrid="false"
     showguides="true"
     inkscape:guide-bbox="true"
     inkscape:zoom="0.16826408"
     inkscape:cx="84.050936"
     inkscape:cy="-469.26603"
     inkscape:window-x="2040"
     inkscape:window-y="461"
     inkscape:window-maximized="0"
     inkscape:current-layer="be52d4a0-d7df-45d7-a4d1-9b9d295e8f0e">
    <sodipodi:guide
       position="638.87671,656.70582"
       orientation="0,1"
       id="guide1452"
       inkscape:locked="false" />
    <sodipodi:guide
       position="1016.2597,294.18044"
       orientation="0,1"
       id="guide1454"
       inkscape:locked="false" />
    <sodipodi:guide
       position="949.7341,-619.84858"
       orientation="0,1"
       id="guide1544"
       inkscape:locked="false" />
    <sodipodi:guide
       position="-1197.6735,-1239.6972"
       orientation="0,1"
       id="guide1546"
       inkscape:locked="false" />
  </sodipodi:namedview>
  <title
     id="title940">analyze</title>
  <path
     style="fill:#000000;stroke-width:2.82486749"
     inkscape:connector-curvature="0"
     d="m -1946.2341,1856.4933 c -27.4047,-21.7748 -56.6493,-42.6418 -76.6289,-72.044 -42.0531,-51.8469 -74.4222,-111.8631 -96.5522,-174.9444 -13.3824,-41.0213 -17.9609,-84.9986 -35.2206,-124.4281 -18.0315,-28.6464 3.1056,-59.9399 34.1713,-69.0404 13.82,-2.6899 38.1381,-15.8679 8.7851,-6.4394 -26.3226,19.4937 -28.8588,-17.7116 -1.8728,-20.0687 18.4174,-2.4663 25.198,-17.6879 18.8926,-31.3886 -19.7773,-13.0307 47.9396,-27.3254 13.8624,-46.7621 -35.4747,-38.6691 49.6431,-46.111 28.6377,-2.1908 -5.0208,33.7694 59.4962,-6.2017 44.5139,32.8001 15.2224,18.7333 56.9837,4.2722 55.9343,30.5379 22.1676,1.5397 29.7765,20.3632 50.5654,21.8127 21.5794,9.8373 60.6586,17.5786 67.9897,42.1192 -21.3912,17.0986 -70.9119,-35.3234 -73.3022,12.0137 6.47,69.9435 4.8184,141.9923 30.1481,208.595 11.9802,40.3228 41.0413,72.0631 67.2698,103.4754 25.1084,30.7565 59.1152,52.422 93.7806,70.6516 30.4021,14.4801 63.176,24.0748 96.3168,30.1102 13.4341,-10.3788 37.164,-48.9719 58.1175,-32.7097 1.0118,18.3057 -41.5919,38.2414 -1.9997,36.2168 23.2687,-7.0903 39.3897,18.1537 58.5411,-4.6238 17.6455,21.1094 73.3399,-13.4774 60.7855,29.6682 -16.982,11.0633 -41.7424,4.3767 -58.7433,19.6031 -28.0308,-14.1475 -50.3489,12.6409 -81.3911,9.2621 -34.463,6.2348 -69.5378,8.7441 -104.4762,8.7964 -57.3317,-4.567 -115.8728,-6.4964 -170.4096,-26.6554 -30.7316,-9.0197 -60.7102,-26.6933 -87.7152,-44.367 z m 48.4148,21.1999 c 29.9977,13.0876 59.3364,26.8977 92.2185,31.0748 52.1652,7.3137 106.0383,18.6004 158.387,8.3165 -23.6922,-10.8019 -48.1937,4.1961 -71.7965,-7.7225 -28.3035,6.1448 -58.6869,-1.5776 -87.4752,-5.3842 -32.7174,-14.7178 -68.0415,-24.8352 -98.6838,-43.9582 -38.3073,-14.1237 19.7963,18.1202 30.1436,20.7387 23.9321,13.715 -26.3225,-7.0381 -33.4184,-12.7361 -20.0502,-11.3625 -22.6052,-8.9864 -1.9811,2.5424 4.1502,2.4523 8.2535,5.0328 12.6059,7.1286 z m -57.0917,-40.7458 c 29.0801,10.8779 -0.1269,-20.6438 -13.4343,-18.8236 -5.9006,-10.341 -22.5534,-16.8753 -10.8085,-22.4259 -21.1182,7.4088 -22.13,-28.1619 -32.0538,-23.0721 -22.351,-7.1284 -8.6957,-32.3771 -35.3289,-47.8931 -2.428,-16.3383 -26.4496,-30.5 -34.096,-55.1357 -3.3832,-12.6219 -27.1507,-48.8388 -12.5543,-15.1311 12.4227,32.4484 34.2795,60.2585 52.4758,88.0115 14.1165,26.4321 30.8069,54.0759 56.5224,70.5613 8.677,8.4069 17.0387,21.2711 29.2776,23.9087 z m -83.7391,-92.8731 c 1.0071,-4.4385 5.3126,9.5947 0,0 z m 118.5739,105.9038 c 6.4325,-2.9133 -9.2651,-3.6736 0,0 z m 15.7681,5.8119 c -1.6328,-8.0218 -7.204,4.4909 0,0 z m 19.7632,8.3164 c 9.392,-9.0435 -14.5023,-5.7027 0,0 z m 33.856,19.0613 c 5.7171,-8.5208 -18.2902,-3.2077 0,0 z m -65.0112,-45.7736 c 14.5917,-9.5426 -18.8785,-0.1326 0,0 z m 14.8129,7.461 c -0.4235,-5.0327 -5.2749,2.262 0,0 z m 74.0552,46.6861 c 11.9096,7.5941 69.5378,16.6328 33.456,3.1174 -6.0513,1.2832 -66.9075,-17.3931 -33.456,-3.1174 z m -117.5622,-92.4834 c -1.1575,-5.0469 -18.4926,-5.5888 0,0 z m 34.463,20.311 c 8.9875,-6.3301 -18.6196,-4.8853 0,0 z m 29.0047,17.9492 c 12.8838,-4.8995 -20.8782,-4.9186 0,0 z m -77.5136,-53.686 c 13.9706,10.8209 56.3578,1.3924 21.3959,-6.4584 -15.8999,-8.5587 -51.7416,-14.4229 -27.3106,5.161 z m 97.1637,59.8878 c 5.8255,-10.0083 -24.412,-5.7217 0,0 z m -29.5222,-23.69 c 34.1525,9.7468 -28.7271,-21.8317 -8.4323,-3.6021 l 4.5032,2.0625 z m 59.1905,34.5489 c 32.3502,0.3136 -29.2258,-4.51 0,0 z m -139.2732,-89.6464 c -1.2706,-6.0876 -7.9759,0.5037 0,0 z m 193.9934,120.6451 c 0.8611,-10.9872 -10.5544,8.1881 0,0 z m -138.7793,-86.505 c -1.9668,-5.793 -10.1073,-0.2424 0,0 z m -52.1462,-37.9609 c 18.5678,-1.1311 -25.438,-8.2594 0,0 z m -61.7786,-40.3228 c -2.3151,-9.0008 -20.2007,-16.1671 0,0 z m 162.175,103.9411 c -3.3973,-3.9206 -1.5999,0.8507 0,0 z m 100.9282,62.5584 c -0.3105,-5.9972 -5.496,2.2623 0,0 z m -109.8592,-71.8777 c 1.821,-7.7222 -15.8434,-2.3429 0,0 z m -75.1986,-48.1353 c 13.8248,-1.4876 -22.1487,-9.4333 0,0 z m 127.1991,79.8234 c 21.5417,-8.6159 -20.9912,-4.1963 0,0 z m -66.1547,-45.3507 c 24.8122,3.2267 -29.5363,-17.0607 -5.4584,-1.8202 z m 86.2425,53.553 c 23.1792,-13.9762 15.5328,32.7668 39.3191,3.9539 23.4522,-17.2982 -20.2572,21.3851 8.6393,3.0843 20.9159,-14.1286 51.7934,6.7006 71.2977,13.4774 14.0223,-0.6892 27.6636,12.2512 42.053,4.3767 27.6824,-7.5371 -54.1461,-11.1725 -32.6985,-24.5216 -25.3297,7.4467 -44.0387,-8.8724 -56.5036,-25.2629 -28.4166,-6.6294 -61.2609,-21.2948 -75.4526,-46.7051 -5.7878,-9.5235 8.3474,1.3545 -4.9972,-14.2377 -17.1139,-15.3736 -25.6592,-32.8428 -37.15,-51.5334 -13.7306,-7.3897 -15.3494,-29.1645 -16.7281,-0.7222 0.1133,-17.954 -16.5775,-30.039 -20.657,-25.0255 -0.075,-17.2839 17.8666,-8.6157 5.3125,-21.4041 -2.7011,-17.9158 -11.5992,-36.5874 -14.2672,-56.8225 -4.1501,-9.7469 -0.5882,-30.6282 -14.1871,-8.5588 -4.9455,23.3335 -1.6375,-28.6608 6.0655,-11.5289 10.1074,-17.4836 -3.6421,-15.4258 -4.1926,-13.0116 6.5829,-14.7558 4.1737,-35.6989 -1.727,-27.7151 3.5104,-15.6492 5.5526,-57.583 -5.2372,-50.1411 6.5406,-16.3714 12.4084,-74.8858 -16.0128,-52.5692 -11.505,0.1664 -31.4468,4.2152 -40.8578,8.9484 29.5363,16.4476 -2.9786,5.9403 -15.02,3.3218 -1.5623,15.2215 -13.4719,8.6491 -28.36,8.7965 23.7862,2.9701 -11.5802,24.5596 -25.1979,16.1718 -17.721,8.5398 15.274,29.8869 0.3482,36.4924 1.8398,9.9323 -27.1319,-3.5973 -24.8686,19.3846 -17.1891,-7.3185 -2.3527,27.2492 6.249,15.554 29.2446,8.0028 20.5865,26.2134 21.3204,43.5306 -4.7619,10.0795 -23.5274,-23.7042 -4.1737,-22.1456 -15.2739,-25.0442 -16.888,-9.0577 -29.574,2.5806 -2.941,0.8364 32.3503,16.5568 10.2014,24.3172 19.4855,3.0462 20.0549,20.273 24.0264,31.1701 11.7072,12.3225 9.2981,-13.6105 23.3252,1.2069 -8.8794,-13.2017 -46.9844,-37.1862 -16.3046,-29.4972 -0.1646,-13.2729 -5.5525,-23.9845 3.8584,-23.7279 9.3217,-17.0225 -9.7591,41.9909 11.2321,20.3491 5.8066,-2.5613 7.2605,-17.0415 17.702,1.3734 15.1613,15.0743 5.4772,25.9852 -15.9187,12.1754 3.8208,13.1256 28.6189,17.8017 23.9511,38.3173 4.9408,18.0443 11.8531,11.3959 17.8809,10.355 4.7243,17.5265 7.4111,4.643 7.6323,-3.7115 21.6312,4.681 16.5586,17.5976 23.3393,26.6221 14.907,6.7911 -21.3396,-46.0587 4.2489,-15.8915 26.925,24.5597 10.1075,34.8055 -14.0598,30.8706 15.2928,-1.2452 20.2147,20.8861 39.3519,20.1068 17.4434,8.3877 29.2635,40.5794 -0.8093,27.1733 -10.4226,-9.5045 -47.3514,-21.2188 -17.1845,-3.1554 27.8283,13.0306 49.9583,20.8101 76.8127,37.1673 19.2078,13.8481 27.5129,29.7157 34.7924,32.857 -16.154,7.7937 -48.6689,-6.2207 -24.5204,-10.5073 -15.0717,-2.7658 -32.0162,-10.4692 -17.5892,8.4828 12.2767,10.3598 43.4694,9.2622 49.0784,10.4312 -4.7432,10.5452 -12.8836,11.3816 0.1836,12.199 -14.5777,7.8506 4.6866,9.0767 6.0277,13.5486 z m -29.814,-85.0366 c -8.8793,-9.3761 -11.1758,-26.9168 -1.5813,-11.662 4.9269,2.0055 15.7542,28.6846 1.5813,11.662 z m 97.1074,62.2972 c 5.5336,-0.3708 0.1646,4.2484 0,0 z m -111.1111,-85.2792 c -0.3529,-14.1663 3.1951,10.9303 0,0 z m -9.6509,-13.1066 c -11.1755,-21.7747 14.0601,6.1638 0,0 z m -116.9788,-81.5294 c 6.5643,-1.7679 3.2374,11.3197 0,0 z m 93.1031,50.9535 c 4.0232,-15.2785 4.7243,12.812 0,0 z m -65.7688,-46.1872 c -4.6302,-8.4255 9.6886,7.9126 0,0 z m 56.4283,18.2678 c -10.5684,-23.9087 7.5006,-13.0687 2.3528,3.9157 z m -97.3239,-65.5477 c -4.7243,-7.8509 -12.5353,-30.8706 -10.0179,-37.9039 2.2587,11.4529 24.0969,49.2665 10.6957,15.6681 -14.7941,-28.1618 17.702,9.1291 21.0477,16.1671 1.5622,6.9811 -9.1381,-1.9104 -1.8964,14.4802 -13.213,-18.6575 -7.7923,10.3027 -19.8291,-8.4115 z m -30.0728,-20.9385 c 1.233,-18.2485 6.8748,12.5128 0,0 z m 13.5285,4.7142 c 6.4511,-13.7719 10.9354,19.1944 0,0 z m -32.5527,-25.4292 c -11.1944,-11.2533 -19.3021,-21.6084 0.5317,-6.981 7.6275,0.2947 -16.9821,-23.5569 1.8399,-7.5751 19.7771,3.6402 9.7591,32.7668 -2.3716,14.5561 z m 17.0949,-0.4467 c 6.5079,-6.5153 3.4539,6.406 0,0 z m 10.5311,3.3978 c -9.8722,-18.6573 11.9659,7.8318 0,0 z m -20.916,-20.1779 c -32.5526,-29.2787 40.8954,15.2926 5.3125,5.4175 z m 93.2819,54.7221 c -14.0978,-8.5209 -3.7504,-60.0494 1.0681,-24.8163 13.6929,-4.4766 -0.7576,18.2107 9.4438,17.9872 -1.595,14.3091 -6.1735,19.4557 -10.5119,6.8291 z m 34.5005,20.6057 c 1.3788,-15.5351 2.9033,10.6212 0,0 z m -5.9899,-5.9974 c 1.5432,-6.6246 0.1464,7.8175 0,0 z m -115.4166,-78.9491 c -20.9158,-29.1455 60.7857,29.4783 13.4012,7.3898 -4.9454,-1.3163 -10.9167,-1.7821 -13.4012,-7.3898 z m 66.4465,35.5707 c -1.9812,-24.5406 4.4136,4.0631 0,0 z m 50.4382,32.6859 c 3.8962,-13.9764 0.2963,9.2478 0,0 z m -113.6661,-79.3768 c 12.4273,-2.6897 51.5016,22.0361 15.6223,7.0571 -3.9856,-4.4577 -12.4978,-2.4331 -15.6223,-7.0571 z m 106.7348,53.7242 c 1.3269,-25.0966 7.43,-14.9792 0.056,3.6022 z m -97.4886,-62.4635 c 5.0727,-7.5038 -13.4576,-33.9168 2.6634,-9.4713 6.9689,5.5887 20.1631,9.3573 8.5123,11.7143 18.3233,16.3192 -4.4656,4.4197 -11.1757,-2.243 z m 92.2137,54.6317 c 3.4963,-28.5894 3.0916,16.7422 0,0 z m -102.801,-81.0305 c 3.8775,-1.6728 2.0564,5.2133 0,0 z m 24.0592,14.4611 c 6.1925,-13.1257 11.4156,14.6273 0,0 z m 67.844,38.1082 c -0.056,-5.0278 1.2845,7.3327 0,0 z m -3.9339,-8.7773 c -9.4109,-23.4667 8.7665,12.4176 0,0 z m -5.7737,-15.3926 c -1.5763,-9.6898 5.3691,12.1801 0,0 z m 9.4111,-15.4447 c -6.47,-11.4911 8.164,-50.6781 9.8016,-26.375 -6.823,18.9328 -1.9669,29.5162 2.7715,4.1202 8.7899,-19.9738 -1.8916,39.4484 -12.5731,22.2548 z m 9.6698,-58.2673 c 2.814,-3.493 0.6259,4.2104 0,0 z m -16.1541,321.3895 c -3.8255,-3.3788 0.4942,2.1339 0,0 z m 33.268,16.9846 c 18.5067,4.8092 18.4173,-2.8989 1.6892,-5.199 -8.9874,-8.4448 -37.385,-17.4122 -11.9661,-1.0408 1.6753,4.3104 6.9878,4.1963 10.2769,6.2398 z m -65.6935,-44.0723 c 10.1828,7.689 38.3968,21.7557 14.5212,2.9368 8.0511,-9.4522 -15.4059,-14.4801 -7.6276,-20.8101 -19.7961,-12.237 -15.627,-11.1392 -1.7458,-10.7496 -23.7862,-10.7496 3.4351,-9.932 2.1504,-15.4447 -9.171,-1.8201 -45.568,-16.3382 -24.1533,1.1882 -21.7629,-11.1965 -5.1854,4.1771 -11.7636,2.5612 -22.2619,-6.1256 19.8148,17.1178 -3.5292,11.3437 12.7565,10.2078 34.3548,26.1752 5.3831,10.8019 -3.8021,5.5505 20.7371,13.9621 26.7648,18.1726 z m 34.7925,20.1969 c 42.2978,13.7578 -20.7513,-16.8372 0,0 z m 178.1125,108.969 c 0.5505,-8.4827 -5.7737,7.2377 0,0 z m 18.3091,7.7795 c 9.7593,-9.5426 0.4046,15.2215 16.1727,-2.3381 0.1649,-12.5698 -0.4753,-19.9928 -18.1208,-4.719 -4.875,2.7325 -7.0395,14.2948 1.9481,7.0571 z m -290.6022,-184.3157 c -2.9973,-11.8998 -21.01,-11.8475 0,0 z m 19.5373,12.9355 c -7.2607,-12.1562 -25.8991,-11.0062 0,0 z m 111.2238,67.7385 c 10.865,9.7468 49.8689,7.1473 13.1802,1.207 -5.4256,-8.112 -34.482,-6.1637 -13.1802,-1.207 z m 152.8722,95.3633 c 16.7093,-14.1665 -16.1916,6.311 0,0 z m 34.7596,24.113 c 0.1086,-4.548 -7.2042,1.9864 0,0 z m 0.056,-6.3683 c 18.5068,-19.7882 -17.9231,1.1692 0,0 z m -366.5348,-234.4376 c -15.7681,-22.7205 -9.7967,-32.9331 -25.0144,-51.4953 -2.8891,-14.1997 -26.1013,-46.3914 -12.0037,-12.2893 12.9025,19.9547 16.7281,50.8442 37.0181,63.7846 z m 360.7236,228.1458 c 34.063,-22.2215 -13.9661,-9.671 0,0 z m 25.9931,10.2839 c 17.0574,-14.7795 -10.7897,-3.0843 0,0 z m -344.4235,-222.8946 c 4.8748,-7.3327 -12.6062,-0.9457 0,0 z m 338.9981,215.8754 c 16.5068,-10.7448 -3.8021,-9.0957 -2.9926,0.9838 z m -224.0241,-142.6053 c -0.5694,-7.2757 -8.7287,0.6131 0,0 z m 13.8389,8.0409 c -4.4091,-8.9866 -6.7618,1.4112 0,0 z m 236.6724,141.8259 c 21.156,-15.4115 -12.8083,-2.9559 -4.4278,2.9321 z m -8.1029,-3.9538 c 17.2409,-14.5753 -18.182,6.4582 0,0 z m 41.3896,27.8242 c 11.5661,-7.8174 -14.06,-2.5233 0,0 z m -388.166,-252.2965 c 15.4953,3.5071 61.962,38.5549 34.5573,2.4331 -14.0412,-4.1962 -5.6232,-38.8544 -19.942,-32.7286 9.6134,16.224 7.9005,23.1101 -12.2813,12.9023 -25.3438,-12.5127 -14.2436,6.1825 -9.2792,11.3435 -6.7666,1.5588 8.931,5.9212 6.9452,6.0497 z m -70.6342,-56.3378 c 2.7716,-11.6051 -25.5697,-63.7848 -13.3825,-26.1564 4.3902,7.8887 3.934,22.8297 13.3825,26.1564 z m 129.6554,80.731 c -7.9947,-6.7386 -0.386,-0.9647 0,0 z m 19.6501,4.624 c 0,-12.2894 -21.7253,-4.9946 0,0 z m 170.3907,108.4652 c -3.2514,-8.3924 -12.8459,-0.1854 0,0 z m 8.1782,6.0306 c -1.2139,-4.6952 -4.7243,0.9125 0,0 z m 67.5334,42.9746 c 6.4889,-4.8426 -8.1076,-0.6273 0,0 z m -360.1354,-233.7297 c 18.582,-7.2615 -19.909,-5.18 0,0 z m 269.4228,171.4134 c -0.2164,-12.1419 -11.8531,3.0272 0,0 z m -276.7587,-188.6974 c 11.9285,-4.0631 -11.0484,-2.6706 0,0 z m 34.6277,16.9465 c -0.2023,-3.987 -3.6561,1.5256 0,0 z m 422.488,261.6539 c 15.3446,-3.1364 50.3253,7.8888 55.9672,-4.1012 -18.6386,-0.4658 -64.4607,-13.292 -66.6298,3.0415 l 4.0797,0.6509 z m -411.477,-258.85 c 0.2776,-12.3083 -9.5004,-0.4611 0,0 z m -91.0561,-63.7989 c -4.1362,-23.4476 -15.7352,-3.5499 0,0 z m 21.7064,5.5126 c 0.2778,-7.537 -19.8713,-6.7767 0,0 z m 12.4084,6.1636 c -3.5854,-2.9369 -2.795,3.6926 0,0 z m 78.0972,50.583 c 3.6797,-3.417 -8.7098,-2.5235 0,0 z m -86.3506,-64.469 c -2.1128,-17.7117 -25.165,-2.6564 0,0 z m -44.5376,-29.1836 c -0.6257,-8.1689 -4.3384,3.0796 0,0 z m 6.6348,-5.0469 c -1.0823,-9.6945 -5.6983,1.2214 0,0 z m 36.5806,22.0506 c 15.4763,-6.1257 -28.1813,-12.6981 -3.1621,-1.1502 z m 489.7389,305.5171 c 9.905,-9.1672 -12.5732,-2.8372 0,0 z m 59.1669,30.9655 c 3.9714,-11.8426 -9.9992,1.5588 0,0 z m -545.1603,-355.8433 c 1.6376,-11.472 -12.2767,2.2811 0,0 z m -52.0711,-35.2331 c -2.7949,-16.1862 -2.4091,-44.6094 24.3369,-35.0099 -35.696,7.1664 24.7228,44.8279 17.0952,15.0885 15.0151,0.7461 29.3715,-8.9628 21.4852,5.7549 29.5929,-3.2838 50.09,-29.1978 78.6713,-25.5576 22.257,-2.9892 46.5938,-5.2369 70.5825,-14.2948 19.7207,-1.4304 38.7073,-22.8725 27.9035,-35.5895 -26.8919,-2.3 -55.0543,1.0977 -84.7742,7.0761 -32.9385,6.905 -62.8608,20.045 -96.0957,25.6907 -32.4068,4.4006 6.5077,12.1039 -2.7763,13.8288 -16.8926,5.9215 20.1631,9.9134 -2.188,16.1674 -13.8011,-2.6518 -28.1766,-7.4422 -22.2759,-22.1456 -31.028,4.087 -58.3058,17.0796 -33.7855,48.9719 l 1.821,0.02 z m 74.7941,-38.4648 c 7.2604,-27.064 38.9661,22.2786 11.9096,3.6022 -3.2187,-2.452 -8.5501,-4.4386 -11.9096,-3.6022 z m 1.4116,-13.1257 c 10.498,-7.8886 5.5712,4.4387 0,0 z m 13.3259,0.2234 c 0.96,-12.4556 30.534,6.5914 4.8749,4.4767 z m 18.2339,-7.404 c 6.6722,-7.8744 1.9339,6.9763 0,0 z m 4.6725,-3.1555 c 11.1002,-13.4583 62.8042,-8.5968 24.9579,-1.321 -10.145,-7.7225 -17.9184,4.5477 -24.9579,1.321 z m 67.4909,-10.5073 c -1.6705,-36.7775 33.5456,13.0498 0,0 z m 19.1561,-0.1143 c 7.0017,-18.5242 27.1838,-7.4419 3.2515,-3.7304 0.5129,1.9864 -0.7151,9.5805 -3.2515,3.7304 z m -154.5662,98.2764 c 20.916,-12.9402 -22.2051,-11.2294 0,0 z m 15.4763,4.3246 c 7.336,-7.8698 -15.9562,-3.1935 0,0 z m -45.582,-32.6528 c 11.9472,-9.281 -14.1541,-3.526 0,0 z m 617.7424,390.2973 c 0.3482,-10.7687 -9.1379,4.8424 0,0 z m -62.7713,-43.2739 c 1.7833,-12.3797 -8.0699,1.0787 0,0 z m 80.0311,47.4512 c 16.7091,0.056 50.6359,-5.2562 14.2811,-5.2371 -5.7171,0.8934 -33.2488,0.708 -14.2811,5.2371 z m -575.8166,-369.4159 c 13.5284,-0.9267 21.156,-15.0551 -2.6303,-14.2568 -36.8534,-3.8397 32.5151,12.7551 -4.7244,8.0029 -4.9972,3.3408 7.0584,7.1854 7.3547,6.2539 z m 11.9096,6.0924 c -1.4163,-8.7631 -4.1924,4.6572 0,0 z m 14.1355,-38.056 c 5.863,-7.3516 -8.1265,-1.9674 0,0 z m -44.9987,-75.9456 c 24.1534,-8.2784 57.167,-17.5975 68.5638,4.0869 -11.5991,-14.0903 -4.6867,-27.9764 6.2676,-7.3517 15.4953,20.8481 23.25,-9.4855 13.1755,-16.4855 11.4908,14.404 24.5392,21.2188 7.684,0.9124 18.3279,-22.2594 -36.6699,2.913 -49.1677,2.6518 -6.0088,2.7278 -62.0891,14.4421 -46.5232,16.1861 z m 14.1541,-27.3586 c 13.7683,-10.4883 47.6243,6.2539 25.899,-10.436 -2.1315,-1.8914 -47.5678,12.6599 -25.899,10.436 z m 50.1982,2.0957 c 16.1023,0.4088 -6.9452,-21.8699 12.2437,-11.7713 -3.1433,-10.3932 -22.3511,-12.3416 -31.7432,-16.4999 -5.3126,9.5047 10.8037,28.3994 19.4995,28.2712 z m -41.3942,-46.0208 c 5.5713,-7.6273 -9.778,3.8826 0,0 z m 20.516,4.9566 c 25.9695,-3.4692 -6.6207,-11.2866 -5.242,-0.2756 z m -38.3074,-30.2575 c -18.2903,-24.1128 34.3924,4.0489 15.8056,-21.1997 -15.6409,-12.565 -30.6563,14.1665 -15.8056,21.1997 z m 234.6303,127.6262 c 8.3852,-15.0027 -34.6089,-20.235 -5.6419,-5.3129 2.6634,0.8934 2.0611,6.3489 5.6419,5.3129 z"
     id="path1622"
     inkscape:export-filename="/home/rochacbruno/Projects/python/flaskextensions.com/fexui/img/logo.png"
     inkscape:export-xdpi="10.98"
     inkscape:export-ydpi="10.98" />
  <text
     xml:space="preserve"
     style="font-style:normal;font-variant:normal;font-weight:bold;font-stretch:normal;font-size:569.00695801px;line-height:1.25;font-family:'BlexMono Nerd Font Mono';-inkscape-font-specification:'BlexMono Nerd Font Mono, Bold';font-variant-ligatures:normal;font-variant-caps:normal;font-variant-numeric:normal;font-feature-settings:normal;text-align:start;letter-spacing:0px;word-spacing:0px;writing-mode:lr-tb;text-anchor:start;fill:#000000;fill-opacity:1;stroke:none;stroke-width:141.73213196"
     x="-2032.2295"
     y="1610.7211"
     id="text1656"
     transform="scale(0.88016654,1.1361486)"
     inkscape:export-filename="/home/rochacbruno/Projects/python/flaskextensions.com/fexui/img/logo.png"
     inkscape:export-xdpi="10.98"
     inkscape:export-ydpi="10.98"><tspan
       sodipodi:role="line"
       id="tspan1654"
       x="-2032.2295"
       y="1610.7211"
       style="font-style:normal;font-variant:normal;font-weight:bold;font-stretch:normal;font-size:569.00695801px;font-family:'BlexMono Nerd Font Mono';-inkscape-font-specification:'BlexMono Nerd Font Mono, Bold';font-variant-ligatures:normal;font-variant-caps:normal;font-variant-numeric:normal;font-feature-settings:normal;text-align:start;writing-mode:lr-tb;text-anchor:start;stroke-width:141.73213196">EXTENSIONS</tspan></text>
</svg>
